<?xml version="1.0" encoding="UTF-8" standalone="no"?><svg xmlns="http://www.w3.org/2000/svg" xmlns:xlink="http://www.w3.org/1999/xlink" contentScriptType="application/ecmascript" contentStyleType="text/css" height="494px" preserveAspectRatio="none" style="width:844px;height:494px;" version="1.1" viewBox="0 0 844 494" width="844px" zoomAndPan="magnify"><defs><filter height="300%" id="f1wpjby5atrpo4" width="300%" x="-1" y="-1"><feGaussianBlur result="blurOut" stdDeviation="2.0"/><feColorMatrix in="blurOut" result="blurOut2" type="matrix" values="0 0 0 0 0 0 0 0 0 0 0 0 0 0 0 0 0 0 .4 0"/><feOffset dx="4.0" dy="4.0" in="blurOut2" result="blurOut3"/><feBlend in="SourceGraphic" in2="blurOut3" mode="normal"/></filter></defs><g><!--cluster Setup--><polygon fill="#FFFFFF" filter="url(#f1wpjby5atrpo4)" points="261.8211,11,307.8211,11,314.8211,33.4883,566.8211,33.4883,566.8211,99,261.8211,99,261.8211,11" style="stroke: #000000; stroke-width: 1.5;"/><line style="stroke: #000000; stroke-width: 1.5;" x1="261.8211" x2="314.8211" y1="33.4883" y2="33.4883"/><text fill="#000000" font-family="sans-serif" font-size="14" font-weight="bold" lengthAdjust="spacingAndGlyphs" textLength="40" x="265.8211" y="26.5352">Setup</text><!--cluster Support--><polygon fill="#FFFFFF" filter="url(#f1wpjby5atrpo4)" points="11.8211,224,73.8211,224,80.8211,246.4883,252.8211,246.4883,252.8211,402,11.8211,402,11.8211,224" style="stroke: #000000; stroke-width: 1.5;"/><line style="stroke: #000000; stroke-width: 1.5;" x1="11.8211" x2="80.8211" y1="246.4883" y2="246.4883"/><text fill="#000000" font-family="sans-serif" font-size="14" font-weight="bold" lengthAdjust="spacingAndGlyphs" textLength="56" x="15.8211" y="239.5352">Support</text><!--cluster Services--><polygon fill="#FFFFFF" filter="url(#f1wpjby5atrpo4)" points="290.8211,224,354.8211,224,361.8211,246.4883,822.8211,246.4883,822.8211,312,290.8211,312,290.8211,224" style="stroke: #000000; stroke-width: 1.5;"/><line style="stroke: #000000; stroke-width: 1.5;" x1="290.8211" x2="361.8211" y1="246.4883" y2="246.4883"/><text fill="#000000" font-family="sans-serif" font-size="14" font-weight="bold" lengthAdjust="spacingAndGlyphs" textLength="58" x="294.8211" y="239.5352">Services</text><!--entity begrensinnsyn--><rect fill="#FEFECE" filter="url(#f1wpjby5atrpo4)" height="52.9766" style="stroke: #A80036; stroke-width: 1.5;" width="155" x="392.3211" y="144"/><rect fill="#FEFECE" height="5" style="stroke: #A80036; stroke-width: 1.5;" width="10" x="387.3211" y="149"/><rect fill="#FEFECE" height="5" style="stroke: #A80036; stroke-width: 1.5;" width="10" x="387.3211" y="186.9766"/><text fill="#000000" font-family="sans-serif" font-size="14" font-style="italic" lengthAdjust="spacingAndGlyphs" textLength="135" x="402.3211" y="167.5352">«..begrens.innsyn..»</text><text fill="#000000" font-family="sans-serif" font-size="14" lengthAdjust="spacingAndGlyphs" textLength="104" x="417.8211" y="184.0234">Begrens Innsyn</text><!--entity Metrics--><rect fill="#FEFECE" filter="url(#f1wpjby5atrpo4)" height="52.9766" style="stroke: #A80036; stroke-width: 1.5;" width="100" x="270.8211" y="431"/><rect fill="#FEFECE" height="5" style="stroke: #A80036; stroke-width: 1.5;" width="10" x="265.8211" y="436"/><rect fill="#FEFECE" height="5" style="stroke: #A80036; stroke-width: 1.5;" width="10" x="265.8211" y="473.9766"/><text fill="#000000" font-family="sans-serif" font-size="14" font-style="italic" lengthAdjust="spacingAndGlyphs" textLength="80" x="280.8211" y="454.5352">«..metrics..»</text><text fill="#000000" font-family="sans-serif" font-size="14" lengthAdjust="spacingAndGlyphs" textLength="49" x="296.3211" y="471.0234">Metrics</text><!--entity Application--><rect fill="#FEFECE" filter="url(#f1wpjby5atrpo4)" height="52.9766" style="stroke: #A80036; stroke-width: 1.5;" width="177" x="381.3211" y="38"/><rect fill="#FEFECE" height="5" style="stroke: #A80036; stroke-width: 1.5;" width="10" x="376.3211" y="43"/><rect fill="#FEFECE" height="5" style="stroke: #A80036; stroke-width: 1.5;" width="10" x="376.3211" y="80.9766"/><text fill="#000000" font-family="sans-serif" font-size="14" font-style="italic" lengthAdjust="spacingAndGlyphs" textLength="157" x="391.3211" y="61.5352">«no.nav.eessi.pensjon»</text><text fill="#000000" font-family="sans-serif" font-size="14" lengthAdjust="spacingAndGlyphs" textLength="78" x="430.8211" y="78.0234">Application</text><!--entity Health--><rect fill="#FEFECE" filter="url(#f1wpjby5atrpo4)" height="52.9766" style="stroke: #A80036; stroke-width: 1.5;" width="93" x="270.3211" y="38"/><rect fill="#FEFECE" height="5" style="stroke: #A80036; stroke-width: 1.5;" width="10" x="265.3211" y="43"/><rect fill="#FEFECE" height="5" style="stroke: #A80036; stroke-width: 1.5;" width="10" x="265.3211" y="80.9766"/><text fill="#000000" font-family="sans-serif" font-size="14" font-style="italic" lengthAdjust="spacingAndGlyphs" textLength="73" x="280.3211" y="61.5352">«..health..»</text><text fill="#000000" font-family="sans-serif" font-size="14" lengthAdjust="spacingAndGlyphs" textLength="44" x="294.8211" y="78.0234">Health</text><!--entity Config--><rect fill="#FEFECE" filter="url(#f1wpjby5atrpo4)" height="52.9766" style="stroke: #A80036; stroke-width: 1.5;" width="93" x="25.3211" y="251"/><rect fill="#FEFECE" height="5" style="stroke: #A80036; stroke-width: 1.5;" width="10" x="20.3211" y="256"/><rect fill="#FEFECE" height="5" style="stroke: #A80036; stroke-width: 1.5;" width="10" x="20.3211" y="293.9766"/><text fill="#000000" font-family="sans-serif" font-size="14" font-style="italic" lengthAdjust="spacingAndGlyphs" textLength="73" x="35.3211" y="274.5352">«..config..»</text><text fill="#000000" font-family="sans-serif" font-size="14" lengthAdjust="spacingAndGlyphs" textLength="46" x="48.8211" y="291.0234">Config</text><!--entity Security--><rect fill="#FEFECE" filter="url(#f1wpjby5atrpo4)" height="52.9766" style="stroke: #A80036; stroke-width: 1.5;" width="103" x="141.3211" y="341"/><rect fill="#FEFECE" height="5" style="stroke: #A80036; stroke-width: 1.5;" width="10" x="136.3211" y="346"/><rect fill="#FEFECE" height="5" style="stroke: #A80036; stroke-width: 1.5;" width="10" x="136.3211" y="383.9766"/><text fill="#000000" font-family="sans-serif" font-size="14" font-style="italic" lengthAdjust="spacingAndGlyphs" textLength="83" x="151.3211" y="364.5352">«..security..»</text><text fill="#000000" font-family="sans-serif" font-size="14" lengthAdjust="spacingAndGlyphs" textLength="54" x="165.8211" y="381.0234">Security</text><!--entity Logging--><rect fill="#FEFECE" filter="url(#f1wpjby5atrpo4)" height="52.9766" style="stroke: #A80036; stroke-width: 1.5;" width="103" x="20.3211" y="341"/><rect fill="#FEFECE" height="5" style="stroke: #A80036; stroke-width: 1.5;" width="10" x="15.3211" y="346"/><rect fill="#FEFECE" height="5" style="stroke: #A80036; stroke-width: 1.5;" width="10" x="15.3211" y="383.9766"/><text fill="#000000" font-family="sans-serif" font-size="14" font-style="italic" lengthAdjust="spacingAndGlyphs" textLength="83" x="30.3211" y="364.5352">«..logging..»</text><text fill="#000000" font-family="sans-serif" font-size="14" lengthAdjust="spacingAndGlyphs" textLength="56" x="43.8211" y="381.0234">Logging</text><!--entity Person--><rect fill="#FEFECE" filter="url(#f1wpjby5atrpo4)" height="52.9766" style="stroke: #A80036; stroke-width: 1.5;" width="172" x="298.8211" y="251"/><rect fill="#FEFECE" height="5" style="stroke: #A80036; stroke-width: 1.5;" width="10" x="293.8211" y="256"/><rect fill="#FEFECE" height="5" style="stroke: #A80036; stroke-width: 1.5;" width="10" x="293.8211" y="293.9766"/><text fill="#000000" font-family="sans-serif" font-size="14" font-style="italic" lengthAdjust="spacingAndGlyphs" textLength="152" x="308.8211" y="274.5352">«..services.personv3..»</text><text fill="#000000" font-family="sans-serif" font-size="14" lengthAdjust="spacingAndGlyphs" textLength="47" x="361.3211" y="291.0234">Person</text><!--entity EUX--><rect fill="#FEFECE" filter="url(#f1wpjby5atrpo4)" height="52.9766" style="stroke: #A80036; stroke-width: 1.5;" width="134" x="488.8211" y="251"/><rect fill="#FEFECE" height="5" style="stroke: #A80036; stroke-width: 1.5;" width="10" x="483.8211" y="256"/><rect fill="#FEFECE" height="5" style="stroke: #A80036; stroke-width: 1.5;" width="10" x="483.8211" y="293.9766"/><text fill="#000000" font-family="sans-serif" font-size="14" font-style="italic" lengthAdjust="spacingAndGlyphs" textLength="114" x="498.8211" y="274.5352">«..services.eux..»</text><text fill="#000000" font-family="sans-serif" font-size="14" lengthAdjust="spacingAndGlyphs" textLength="27" x="542.3211" y="291.0234">EUX</text><!--entity Fagmodul--><rect fill="#FEFECE" filter="url(#f1wpjby5atrpo4)" height="52.9766" style="stroke: #A80036; stroke-width: 1.5;" width="174" x="640.8211" y="251"/><rect fill="#FEFECE" height="5" style="stroke: #A80036; stroke-width: 1.5;" width="10" x="635.8211" y="256"/><rect fill="#FEFECE" height="5" style="stroke: #A80036; stroke-width: 1.5;" width="10" x="635.8211" y="293.9766"/><text fill="#000000" font-family="sans-serif" font-size="14" font-style="italic" lengthAdjust="spacingAndGlyphs" textLength="154" x="650.8211" y="274.5352">«..services.fagmodul..»</text><text fill="#000000" font-family="sans-serif" font-size="14" lengthAdjust="spacingAndGlyphs" textLength="69" x="693.3211" y="291.0234">Fagmodul</text><path d="M469.8211,91.2079 C469.8211,107.2081 469.8211,127.7151 469.8211,143.7274 " fill="none" style="stroke: #A80036; stroke-width: 1.0;"/><text fill="#000000" font-family="sans-serif" font-size="13" lengthAdjust="spacingAndGlyphs" textLength="29" x="470.8211" y="122.5684">uses</text><path d="M230.188,394.1898 C247.0124,405.7565 266.8254,419.378 283.6289,430.9304 " fill="none" style="stroke: #A80036; stroke-width: 1.0;"/><path d="M141.2535,367.5 C135.2825,367.5 129.3116,367.5 123.3406,367.5 " fill="none" style="stroke: #A80036; stroke-width: 1.0;"/><path d="M37.8418,304.1963 C27.0967,314.3484 16.5382,326.957 10.8211,341 C0.5984,366.1099 -6.6109,381.2361 10.8211,402 C43.4093,440.8173 191.5383,451.9955 270.6534,455.2084 " fill="none" style="stroke: #A80036; stroke-width: 1.0;"/><path d="M107.1445,304.1898 C123.0488,315.7565 141.7782,329.378 157.6628,340.9304 " fill="none" style="stroke: #A80036; stroke-width: 1.0;"/><path d="M71.8211,304.4269 C71.8211,315.8849 71.8211,329.3219 71.8211,340.7584 " fill="none" style="stroke: #A80036; stroke-width: 1.0;"/><path d="M375.6514,304.0031 C363.5196,337.7447 342.2528,396.8931 330.0775,430.7554 " fill="none" style="stroke: #A80036; stroke-width: 1.0;"/><path d="M329.0288,304.0715 C302.3453,316.3014 270.6035,330.8497 244.4772,342.8242 " fill="none" style="stroke: #A80036; stroke-width: 1.0;"/><path d="M522.1513,304.0031 C477.6047,337.7447 399.5156,396.8931 354.8097,430.7554 " fill="none" style="stroke: #A80036; stroke-width: 1.0;"/><path d="M670.2477,304.0957 C613.6929,329.1909 524.9175,368.4562 447.8211,402 C422.5201,413.0082 394.3222,425.1242 370.9357,435.1312 " fill="none" style="stroke: #A80036; stroke-width: 1.0;"/><path d="M490.859,197.1859 C504.1858,213.457 521.3599,234.4253 534.7022,250.7154 " fill="none" style="stroke: #A80036; stroke-width: 1.0;"/><path d="M547.5483,193.4473 C574.6245,201.9397 604.9417,212.4158 631.8211,224 C649.7894,231.7439 668.8394,241.755 685.1919,250.9555 " fill="none" style="stroke: #A80036; stroke-width: 1.0;"/><path d="M449.0277,197.1859 C435.8559,213.457 418.8815,234.4253 405.6943,250.7154 " fill="none" style="stroke: #A80036; stroke-width: 1.0;"/><path d="M391.8484,184.2568 C348.1921,193.1636 299.9483,206.5772 286.8211,224 C240.0566,286.0669 281.7181,384.5066 306.0985,430.8168 " fill="none" style="stroke: #A80036; stroke-width: 1.0;"/></g></svg>